<?xml version="1.0" encoding="UTF-8"?>
<svg version="1.1" xmlns="http://www.w3.org/2000/svg" width="1024" height="1024">
<path d="M0 0 C1.10923828 0.05929688 2.21847656 0.11859375 3.36132812 0.1796875 C4.51955078 0.25703125 5.67777344 0.334375 6.87109375 0.4140625 C9.16379618 0.55139576 11.45676143 0.68443083 13.75 0.8125 C14.76779541 0.87872559 15.78559082 0.94495117 16.83422852 1.01318359 C19.3123746 1.22739844 19.3123746 1.22739844 21.30859375 0.0390625 C23.04161049 0.12815623 24.77151832 0.2838858 26.49609375 0.4765625 C30.80723161 0.91902139 34.97876817 1.13528085 39.30859375 1.0390625 C40.4585698 5.12963475 40.41915148 9.07189068 40.37109375 13.2890625 C40.35046875 15.8465625 40.32984375 18.4040625 40.30859375 21.0390625 C47.23859375 21.0390625 54.16859375 21.0390625 61.30859375 21.0390625 C63.10148173 24.62483846 62.31802558 28.83458043 62.24609375 32.77734375 C62.21824287 36.3555822 62.21824287 36.3555822 63.30859375 41.0390625 C69.90859375 41.0390625 76.50859375 41.0390625 83.30859375 41.0390625 C83.63859375 89.2190625 83.96859375 137.3990625 84.30859375 187.0390625 C87.27859375 187.3690625 90.24859375 187.6990625 93.30859375 188.0390625 C93.30859375 167.2490625 93.30859375 146.4590625 93.30859375 125.0390625 C99.24859375 124.7090625 105.18859375 124.3790625 111.30859375 124.0390625 C111.30073853 121.73736084 111.30073853 121.73736084 111.29272461 119.38916016 C111.27466604 113.712571 111.26315858 108.03598441 111.25366211 102.359375 C111.24862386 99.89940972 111.24179315 97.43944745 111.2331543 94.97949219 C111.22106652 91.44986225 111.21536046 87.92027181 111.2109375 84.390625 C111.20577621 83.28538483 111.20061493 82.18014465 111.19529724 81.04141235 C111.19518394 79.51005142 111.19518394 79.51005142 111.19506836 77.94775391 C111.19284775 77.04618561 111.19062714 76.14461731 111.18833923 75.21572876 C111.30859375 73.0390625 111.30859375 73.0390625 112.30859375 71.0390625 C118.90859375 71.0390625 125.50859375 71.0390625 132.30859375 71.0390625 C132.30859375 64.1090625 132.30859375 57.1790625 132.30859375 50.0390625 C140.05624361 48.93225538 146.52755033 49.41933338 154.30859375 50.0390625 C154.30859375 43.7690625 154.30859375 37.4990625 154.30859375 31.0390625 C171.13859375 31.0390625 187.96859375 31.0390625 205.30859375 31.0390625 C205.30859375 37.3090625 205.30859375 43.5790625 205.30859375 50.0390625 C212.23859375 50.0390625 219.16859375 50.0390625 226.30859375 50.0390625 C228.08291283 55.36201975 228.448617 58.58587001 227.93359375 63.9140625 C227.72734375 66.2653125 227.52109375 68.6165625 227.30859375 71.0390625 C233.24859375 71.0390625 239.18859375 71.0390625 245.30859375 71.0390625 C247.55859375 76.6640625 247.55859375 76.6640625 247.53564453 80.4621582 C247.53540283 81.3142688 247.53516113 82.16637939 247.53491211 83.04431152 C247.52468018 83.92558716 247.51444824 84.80686279 247.50390625 85.71484375 C247.50189209 86.53545288 247.49987793 87.35606201 247.49780273 88.20153809 C247.48737998 91.25160351 247.45945747 94.30158893 247.43359375 97.3515625 C247.39234375 104.1784375 247.35109375 111.0053125 247.30859375 118.0390625 C265.45859375 118.0390625 283.60859375 118.0390625 302.30859375 118.0390625 C303.10450112 122.8145067 303.4309184 127.12703184 303.37109375 131.9140625 C303.35046875 134.2653125 303.32984375 136.6165625 303.30859375 139.0390625 C310.56859375 139.0390625 317.82859375 139.0390625 325.30859375 139.0390625 C327.15381523 142.72950546 327.55720233 143.78673543 327.53564453 147.62402344 C327.53549347 148.52465515 327.53534241 149.42528687 327.53518677 150.35321045 C327.5248642 151.31688538 327.51454163 152.2805603 327.50390625 153.2734375 C327.49966141 154.76318085 327.49966141 154.76318085 327.49533081 156.28302002 C327.48414518 159.45182394 327.45904337 162.62034415 327.43359375 165.7890625 C327.42356187 167.938798 327.41443638 170.08853793 327.40625 172.23828125 C327.38421116 177.50530496 327.35074959 182.77216346 327.30859375 188.0390625 C327.9948584 188.02858887 328.68112305 188.01811523 329.38818359 188.00732422 C332.48661664 187.96584376 335.58499136 187.93976181 338.68359375 187.9140625 C340.30394531 187.88892578 340.30394531 187.88892578 341.95703125 187.86328125 C342.98828125 187.85683594 344.01953125 187.85039062 345.08203125 187.84375 C346.51168213 187.82803955 346.51168213 187.82803955 347.97021484 187.81201172 C350.30859375 188.0390625 350.30859375 188.0390625 352.30859375 190.0390625 C352.00482836 191.71137093 351.66217462 193.37657357 351.30859375 195.0390625 C351.1745469 198.14387726 351.21446084 201.2445387 351.24609375 204.3515625 C351.27703125 208.651875 351.27703125 208.651875 351.30859375 213.0390625 C358.89859375 213.0390625 366.48859375 213.0390625 374.30859375 213.0390625 C375.53939884 215.50067267 375.42903352 217.10403243 375.42211914 219.85595703 C375.42204361 220.85684357 375.42196808 221.8577301 375.42189026 222.88894653 C375.41672897 223.97231293 375.41156769 225.05567932 375.40625 226.171875 C375.40483505 227.27884735 375.4034201 228.3858197 375.40196228 229.52633667 C375.39635147 233.07227243 375.38379712 236.61814573 375.37109375 240.1640625 C375.36608014 242.56380117 375.361517 244.96354083 375.35742188 247.36328125 C375.34637853 253.25522975 375.32962985 259.14714166 375.30859375 265.0390625 C376.20952759 265.03120728 376.20952759 265.03120728 377.12866211 265.02319336 C379.83446213 265.00248236 382.54024552 264.98942125 385.24609375 264.9765625 C386.19162109 264.96818359 387.13714844 264.95980469 388.11132812 264.95117188 C389.46000977 264.94633789 389.46000977 264.94633789 390.8359375 264.94140625 C392.08491821 264.93355103 392.08491821 264.93355103 393.35913086 264.92553711 C395.30859375 265.0390625 395.30859375 265.0390625 396.30859375 266.0390625 C396.4074062 267.74695531 396.43658341 269.45892943 396.43798828 271.16967773 C396.44271652 272.8115934 396.44271652 272.8115934 396.44754028 274.48667908 C396.44551605 275.67830154 396.44349182 276.86992401 396.44140625 278.09765625 C396.44236298 279.31228043 396.4433197 280.5269046 396.44430542 281.77833557 C396.44498752 284.35328218 396.44313116 286.9282305 396.43896484 289.50317383 C396.43362164 293.45593108 396.43890649 297.40857446 396.4453125 301.36132812 C396.44465163 303.85677109 396.44337029 306.35221397 396.44140625 308.84765625 C396.44343048 310.03725449 396.44545471 311.22685272 396.44754028 312.45249939 C396.44438812 313.55026199 396.44123596 314.6480246 396.43798828 315.77905273 C396.43679489 317.23347023 396.43679489 317.23347023 396.43557739 318.7172699 C396.30859375 321.0390625 396.30859375 321.0390625 395.30859375 323.0390625 C392.37140608 323.23367738 389.43409443 323.42003843 386.49609375 323.6015625 C385.66271484 323.65763672 384.82933594 323.71371094 383.97070312 323.77148438 C383.16826172 323.81982422 382.36582031 323.86816406 381.5390625 323.91796875 C380.43147583 323.98866577 380.43147583 323.98866577 379.30151367 324.06079102 C377.30859375 324.0390625 377.30859375 324.0390625 374.30859375 323.0390625 C374.39238281 324.11027344 374.47617187 325.18148438 374.5625 326.28515625 C374.66564271 327.68227116 374.76849218 329.07940774 374.87109375 330.4765625 C374.92716797 331.18361328 374.98324219 331.89066406 375.04101562 332.61914062 C375.17050368 334.42334087 375.24380983 336.23138202 375.30859375 338.0390625 C373.29276817 340.05488808 369.32374438 339.46367381 366.55859375 339.6015625 C365.32471924 339.6641626 365.32471924 339.6641626 364.06591797 339.72802734 C356.19013807 340.07866628 348.31634254 340.14736605 340.43359375 340.1640625 C338.63583496 340.17095093 338.63583496 340.17095093 336.80175781 340.17797852 C328.9279892 340.16443295 321.14929941 339.75511613 313.30859375 339.0390625 C313.39238281 340.17085938 313.47617187 341.30265625 313.5625 342.46875 C313.66565983 343.95050031 313.76850828 345.43227232 313.87109375 346.9140625 C313.92716797 347.66042969 313.98324219 348.40679687 314.04101562 349.17578125 C314.421875 354.8125 314.421875 354.8125 313.30859375 357.0390625 C301.87540038 357.92831087 290.45909527 358.14947009 278.99609375 358.1640625 C277.97914429 358.16780884 277.97914429 358.16780884 276.94165039 358.17163086 C268.01460751 358.19858124 259.19774009 357.87031934 250.30859375 357.0390625 C250.63859375 357.6990625 250.96859375 358.3590625 251.30859375 359.0390625 C251.44274847 361.7114246 251.35177916 364.36156738 251.30859375 367.0390625 C247.98511659 367.783474 244.92176831 368.16196381 241.51831055 368.15258789 C240.13744514 368.15247459 240.13744514 368.15247459 238.72868347 368.15235901 C237.25810234 368.14461708 237.25810234 368.14461708 235.7578125 368.13671875 C234.74386917 368.1353038 233.72992584 368.13388885 232.68525696 368.13243103 C229.45550554 368.12684578 226.22582413 368.11429595 222.99609375 368.1015625 C220.80273538 368.0965456 218.60937592 368.09198302 216.41601562 368.08789062 C211.04685122 368.07688118 205.67772749 368.0601577 200.30859375 368.0390625 C200.24800781 368.96589844 200.18742187 369.89273437 200.125 370.84765625 C200.04121094 372.04519531 199.95742188 373.24273438 199.87109375 374.4765625 C199.78988281 375.67152344 199.70867187 376.86648438 199.625 378.09765625 C199.30859375 381.0390625 199.30859375 381.0390625 198.30859375 382.0390625 C195.78978858 382.19894741 193.29517109 382.29840475 190.7734375 382.35546875 C190.02018692 382.37624985 189.26693634 382.39703094 188.49085999 382.41844177 C186.07603385 382.48401675 183.66109577 382.54285871 181.24609375 382.6015625 C179.61261846 382.6447402 177.97915465 382.68835423 176.34570312 382.73242188 C172.33344911 382.83970612 168.32108211 382.94095071 164.30859375 383.0390625 C164.32019531 384.11027344 164.33179688 385.18148438 164.34375 386.28515625 C164.35312674 387.68228993 164.36222706 389.07942549 164.37109375 390.4765625 C164.37947266 391.18361328 164.38785156 391.89066406 164.39648438 392.61914062 C164.40512963 394.42599809 164.36079386 396.23293853 164.30859375 398.0390625 C160.56169768 401.78595857 146.0998685 400.09526907 140.81811523 400.10717773 C137.31468426 400.09913833 133.81185305 400.07517858 130.30859375 400.0390625 C130.24800781 401.18246094 130.18742187 402.32585937 130.125 403.50390625 C130.04060947 404.99480555 129.95596073 406.48569025 129.87109375 407.9765625 C129.81211914 409.10868164 129.81211914 409.10868164 129.75195312 410.26367188 C129.421875 415.92578125 129.421875 415.92578125 128.30859375 417.0390625 C126.52989649 417.19670655 124.74540899 417.29006927 122.9609375 417.35546875 C121.88134766 417.39736328 120.80175781 417.43925781 119.68945312 417.48242188 C118.55314453 417.52173828 117.41683594 417.56105469 116.24609375 417.6015625 C115.10591797 417.64474609 113.96574219 417.68792969 112.79101562 417.73242188 C109.9636718 417.83889089 107.13623637 417.94090457 104.30859375 418.0390625 C104.32599609 419.75416016 104.32599609 419.75416016 104.34375 421.50390625 C104.35312663 422.99479004 104.36222696 424.48567559 104.37109375 425.9765625 C104.37947266 426.73130859 104.38785156 427.48605469 104.39648438 428.26367188 C104.40511816 430.18900563 104.36083708 432.11441831 104.30859375 434.0390625 C102.73622962 435.61142663 101.12236237 435.20291657 98.94140625 435.25 C98.05582031 435.27835938 97.17023438 435.30671875 96.2578125 435.3359375 C94.38300711 435.38779934 92.50797764 435.4321359 90.6328125 435.46875 C89.30056641 435.51515625 89.30056641 435.51515625 87.94140625 435.5625 C87.12559082 435.58231934 86.30977539 435.60213867 85.46923828 435.62255859 C82.8303442 436.13125388 81.91771522 436.91844283 80.30859375 439.0390625 C79.98327005 441.41798443 79.98327005 441.41798443 80.18359375 443.9765625 C80.33131418 447.24118403 80.25553925 449.89957395 79.30859375 453.0390625 C74.96343983 454.17808343 70.92032561 453.96932224 66.49609375 453.6015625 C64.12421875 453.4159375 61.75234375 453.2303125 59.30859375 453.0390625 C59.30859375 461.9490625 59.30859375 470.8590625 59.30859375 480.0390625 C53.64388821 482.87141527 46.63099811 480.41096864 40.30859375 480.0390625 C40.30859375 492.9090625 40.30859375 505.7790625 40.30859375 519.0390625 C34.03859375 519.0390625 27.76859375 519.0390625 21.30859375 519.0390625 C21.30859375 531.5790625 21.30859375 544.1190625 21.30859375 557.0390625 C17.30859375 559.0390625 17.30859375 559.0390625 3.30859375 559.0390625 C2.97859375 573.5590625 2.64859375 588.0790625 2.30859375 603.0390625 C-3.63140625 603.0390625 -9.57140625 603.0390625 -15.69140625 603.0390625 C-15.69140625 616.8990625 -15.69140625 630.7590625 -15.69140625 645.0390625 C-20.04920606 645.91062246 -23.59886731 646.14273109 -28.00390625 646.1015625 C-29.25816406 646.09253906 -30.51242187 646.08351563 -31.8046875 646.07421875 C-33.23361328 646.05681641 -33.23361328 646.05681641 -34.69140625 646.0390625 C-34.68616943 647.08884277 -34.68093262 648.13862305 -34.67553711 649.22021484 C-34.65746386 653.10773875 -34.64596571 656.99525894 -34.63647461 660.8828125 C-34.63143972 662.56673812 -34.62461144 664.25065936 -34.6159668 665.93457031 C-34.60386429 668.35222453 -34.59816957 670.76982106 -34.59375 673.1875 C-34.58858871 673.9427597 -34.58342743 674.69801941 -34.57810974 675.47616577 C-34.57753454 680.81131909 -34.57753454 680.81131909 -35.69140625 683.0390625 C-41.63140625 683.0390625 -47.57140625 683.0390625 -53.69140625 683.0390625 C-53.69140625 691.9490625 -53.69140625 700.8590625 -53.69140625 710.0390625 C-61.94140625 710.0390625 -70.19140625 710.0390625 -78.69140625 710.0390625 C-78.69140625 716.6390625 -78.69140625 723.2390625 -78.69140625 730.0390625 C-86.65243871 730.71659718 -94.51758443 731.14487614 -102.50390625 731.1640625 C-103.29845215 731.16857422 -104.09299805 731.17308594 -104.91162109 731.17773438 C-110.56755017 731.16291858 -110.56755017 731.16291858 -111.69140625 730.0390625 C-111.7924388 727.23912653 -111.83110713 724.46437606 -111.82421875 721.6640625 C-111.82517548 720.82439941 -111.8261322 719.98473633 -111.82711792 719.11962891 C-111.82779973 717.34081955 -111.82594542 715.56200773 -111.82177734 713.78320312 C-111.81642908 711.05072474 -111.8217223 708.31841074 -111.828125 705.5859375 C-111.82746422 703.8619788 -111.82618306 702.13802021 -111.82421875 700.4140625 C-111.82624298 699.59115723 -111.82826721 698.76825195 -111.83035278 697.92041016 C-111.80635679 692.15401304 -111.80635679 692.15401304 -110.69140625 691.0390625 C-109.16444925 690.96426666 -107.63411597 690.95583118 -106.10546875 690.9765625 C-105.17476562 690.98429688 -104.2440625 690.99203125 -103.28515625 691 C-101.31380073 691.02593889 -99.34244655 691.05197974 -97.37109375 691.078125 C-96.4378125 691.08585938 -95.50453125 691.09359375 -94.54296875 691.1015625 C-93.25640381 691.11896484 -93.25640381 691.11896484 -91.94384766 691.13671875 C-89.52133145 691.13505908 -89.52133145 691.13505908 -86.69140625 690.0390625 C-86.70300781 689.07226562 -86.71460938 688.10546875 -86.7265625 687.109375 C-86.77817954 679.66177392 -86.60291024 672.44503241 -85.69140625 665.0390625 C-79.75140625 665.0390625 -73.81140625 665.0390625 -67.69140625 665.0390625 C-67.69140625 655.4690625 -67.69140625 645.8990625 -67.69140625 636.0390625 C-61.42140625 636.0390625 -55.15140625 636.0390625 -48.69140625 636.0390625 C-48.70300781 633.45191406 -48.71460938 630.86476563 -48.7265625 628.19921875 C-48.73435287 625.70385867 -48.74042974 623.20849993 -48.74633789 620.71313477 C-48.75137829 618.97387082 -48.75821055 617.23461114 -48.7668457 615.49536133 C-48.77892417 613.00080313 -48.78463733 610.50630077 -48.7890625 608.01171875 C-48.79422379 607.22942398 -48.79938507 606.44712921 -48.80470276 605.64112854 C-48.80489851 603.77339136 -48.75340319 601.90577046 -48.69140625 600.0390625 C-47.14190357 598.48955982 -45.59150031 598.82251057 -43.4375 598.72265625 C-42.58349609 598.68076172 -41.72949219 598.63886719 -40.84960938 598.59570312 C-39.95177734 598.55638672 -39.05394531 598.51707031 -38.12890625 598.4765625 C-36.77635742 598.41178711 -36.77635742 598.41178711 -35.39648438 598.34570312 C-33.1616214 598.23928108 -30.92664317 598.13726262 -28.69140625 598.0390625 C-28.69664307 596.8430542 -28.70187988 595.6470459 -28.70727539 594.41479492 C-28.72536337 589.98120877 -28.7368522 585.54762589 -28.74633789 581.11401367 C-28.7513694 579.19441174 -28.75819523 577.27481364 -28.7668457 575.35522461 C-28.77896294 572.59748386 -28.78464636 569.83979374 -28.7890625 567.08203125 C-28.79422379 566.22256393 -28.79938507 565.36309662 -28.80470276 564.47758484 C-28.80477829 563.67698135 -28.80485382 562.87637787 -28.80493164 562.05151367 C-28.80715225 561.3475798 -28.80937286 560.64364594 -28.81166077 559.91838074 C-28.69140625 558.0390625 -28.69140625 558.0390625 -27.69140625 555.0390625 C-13.93278556 553.29193606 -13.93278556 553.29193606 -8.69140625 555.0390625 C-8.69362686 554.29181915 -8.69584747 553.54457581 -8.69813538 552.77468872 C-8.7181522 545.74099641 -8.73338751 538.70731392 -8.74321842 531.67360115 C-8.74844244 528.05729078 -8.7555314 524.44100389 -8.7668457 520.82470703 C-8.77769163 517.33638146 -8.78368672 513.84807852 -8.78628349 510.3597374 C-8.78903706 508.37768558 -8.79684635 506.3956429 -8.80470276 504.41360474 C-8.80477829 503.21251068 -8.80485382 502.01141663 -8.80493164 500.77392578 C-8.80715225 499.71247345 -8.80937286 498.65102112 -8.81166077 497.55740356 C-8.69140625 495.0390625 -8.69140625 495.0390625 -7.69140625 493.0390625 C-1.75140625 493.0390625 4.18859375 493.0390625 10.30859375 493.0390625 C10.30859375 470.9290625 10.30859375 448.8190625 10.30859375 426.0390625 C4.36859375 426.0390625 -1.57140625 426.0390625 -7.69140625 426.0390625 C-8.02140625 414.8190625 -8.35140625 403.5990625 -8.69140625 392.0390625 C-12.98140625 392.0390625 -17.27140625 392.0390625 -21.69140625 392.0390625 C-23.67140625 391.3790625 -25.65140625 390.7190625 -27.69140625 390.0390625 C-27.69140625 382.4490625 -27.69140625 374.8590625 -27.69140625 367.0390625 C-33.30140625 366.7090625 -38.91140625 366.3790625 -44.69140625 366.0390625 C-45.81640625 358.1640625 -45.81640625 358.1640625 -45.7890625 354.41796875 C-45.78583984 353.62841797 -45.78261719 352.83886719 -45.77929688 352.02539062 C-45.77091797 351.22552734 -45.76253906 350.42566406 -45.75390625 349.6015625 C-45.74939453 348.77462891 -45.74488281 347.94769531 -45.74023438 347.09570312 C-45.72856436 345.07679104 -45.71063343 343.05791676 -45.69140625 341.0390625 C-46.25649902 341.08506592 -46.8215918 341.13106934 -47.40380859 341.1784668 C-49.95705198 341.37727417 -52.51138288 341.5521895 -55.06640625 341.7265625 C-55.95585937 341.79939453 -56.8453125 341.87222656 -57.76171875 341.94726562 C-58.6125 342.00205078 -59.46328125 342.05683594 -60.33984375 342.11328125 C-61.51812744 342.19968872 -61.51812744 342.19968872 -62.72021484 342.2878418 C-63.69595459 342.16469604 -63.69595459 342.16469604 -64.69140625 342.0390625 C-66.87326051 338.76628111 -66.90572951 338.1039377 -66.66796875 334.37109375 C-66.59956787 333.1641687 -66.59956787 333.1641687 -66.52978516 331.93286133 C-66.45937012 330.91603271 -66.38895508 329.8992041 -66.31640625 328.8515625 C-66.11015625 325.6134375 -65.90390625 322.3753125 -65.69140625 319.0390625 C-72.29140625 319.0390625 -78.89140625 319.0390625 -85.69140625 319.0390625 C-86.81640625 308.9140625 -86.81640625 308.9140625 -86.75390625 303.9765625 C-86.74488281 303.03683594 -86.73585938 302.09710938 -86.7265625 301.12890625 C-86.70916016 300.09443359 -86.70916016 300.09443359 -86.69140625 299.0390625 C-87.7740979 299.04691772 -87.7740979 299.04691772 -88.87866211 299.05493164 C-92.12873474 299.07563608 -95.37879353 299.08870168 -98.62890625 299.1015625 C-100.33336914 299.11413086 -100.33336914 299.11413086 -102.07226562 299.12695312 C-103.15185547 299.13017578 -104.23144531 299.13339844 -105.34375 299.13671875 C-106.8440979 299.14457397 -106.8440979 299.14457397 -108.37475586 299.15258789 C-110.69140625 299.0390625 -110.69140625 299.0390625 -111.69140625 298.0390625 C-111.84722928 296.69891029 -111.94184767 295.35147347 -112.0078125 294.00390625 C-112.04970703 293.19501953 -112.09160156 292.38613281 -112.13476562 291.55273438 C-112.17408203 290.70259766 -112.21339844 289.85246094 -112.25390625 288.9765625 C-112.29708984 288.12255859 -112.34027344 287.26855469 -112.38476562 286.38867188 C-112.49117327 284.27234213 -112.59182356 282.15572437 -112.69140625 280.0390625 C-113.2961377 280.04429932 -113.90086914 280.04953613 -114.52392578 280.05493164 C-117.28807519 280.07583608 -120.0522079 280.08876529 -122.81640625 280.1015625 C-124.24339844 280.11413086 -124.24339844 280.11413086 -125.69921875 280.12695312 C-126.62734375 280.13017578 -127.55546875 280.13339844 -128.51171875 280.13671875 C-129.36008301 280.14195557 -130.20844727 280.14719238 -131.08251953 280.15258789 C-133.69140625 280.0390625 -133.69140625 280.0390625 -139.69140625 279.0390625 C-139.69140625 272.7690625 -139.69140625 266.4990625 -139.69140625 260.0390625 C-148.93140625 260.0390625 -158.17140625 260.0390625 -167.69140625 260.0390625 C-168.69140625 253.0390625 -168.69140625 253.0390625 -168.69140625 246.0390625 C-180.07640625 245.5440625 -180.07640625 245.5440625 -191.69140625 245.0390625 C-192.39332925 238.72175549 -192.79036978 233.27376504 -192.69140625 227.0390625 C-193.35261475 227.01400635 -194.01382324 226.9889502 -194.69506836 226.96313477 C-197.6732293 226.84753148 -200.65104545 226.72464496 -203.62890625 226.6015625 C-204.66982422 226.56224609 -205.71074219 226.52292969 -206.78320312 226.48242188 C-207.77255859 226.44052734 -208.76191406 226.39863281 -209.78125 226.35546875 C-211.15591431 226.30048218 -211.15591431 226.30048218 -212.55834961 226.24438477 C-214.69140625 226.0390625 -214.69140625 226.0390625 -215.69140625 225.0390625 C-215.77792236 223.62336127 -215.79845529 222.2034675 -215.7890625 220.78515625 C-215.78583984 219.93115234 -215.78261719 219.07714844 -215.77929688 218.19726562 C-215.77091797 217.29943359 -215.76253906 216.40160156 -215.75390625 215.4765625 C-215.74939453 214.57486328 -215.74488281 213.67316406 -215.74023438 212.74414062 C-215.7284085 210.50904936 -215.71192845 208.27408813 -215.69140625 206.0390625 C-216.25649902 206.04429932 -216.8215918 206.04953613 -217.40380859 206.05493164 C-219.95799655 206.07568672 -222.51216678 206.0887179 -225.06640625 206.1015625 C-225.95585937 206.10994141 -226.8453125 206.11832031 -227.76171875 206.12695312 C-228.6125 206.13017578 -229.46328125 206.13339844 -230.33984375 206.13671875 C-231.12536621 206.14195557 -231.91088867 206.14719238 -232.72021484 206.15258789 C-234.69140625 206.0390625 -234.69140625 206.0390625 -236.69140625 205.0390625 C-237.44029156 202.04352124 -237.82604303 199.70976334 -237.21484375 196.66503906 C-236.6738182 193.95082693 -236.59284371 191.53723028 -236.62890625 188.7734375 C-236.63664063 187.80148437 -236.644375 186.82953125 -236.65234375 185.828125 C-236.66523438 184.82523438 -236.678125 183.82234375 -236.69140625 182.7890625 C-236.71678797 180.78390658 -236.73786423 178.77868989 -236.75390625 176.7734375 C-236.76550781 175.88881836 -236.77710938 175.00419922 -236.7890625 174.09277344 C-236.69140625 172.0390625 -236.69140625 172.0390625 -235.69140625 171.0390625 C-234.20268765 170.95236818 -232.70996125 170.93202756 -231.21875 170.94140625 C-230.40913818 170.94390381 -229.59952637 170.94640137 -228.76538086 170.94897461 C-227.21282593 170.96263062 -227.21282593 170.96263062 -225.62890625 170.9765625 C-222.34953125 170.9971875 -219.07015625 171.0178125 -215.69140625 171.0390625 C-215.69140625 162.4590625 -215.69140625 153.8790625 -215.69140625 145.0390625 C-213.39486925 143.890794 -212.10827458 143.92345075 -209.55859375 143.94140625 C-208.83269043 143.94390381 -208.10678711 143.94640137 -207.35888672 143.94897461 C-206.43736816 143.95807861 -205.51584961 143.96718262 -204.56640625 143.9765625 C-201.63765625 143.9971875 -198.70890625 144.0178125 -195.69140625 144.0390625 C-195.36140625 135.4590625 -195.03140625 126.8790625 -194.69140625 118.0390625 C-191.33714235 117.20049652 -189.46346526 116.95832918 -186.14453125 117.16015625 C-185.38301758 117.20325928 -184.62150391 117.2463623 -183.83691406 117.29077148 C-182.88139648 117.35208252 -181.92587891 117.41339355 -180.94140625 117.4765625 C-176.36265625 117.755 -176.36265625 117.755 -171.69140625 118.0390625 C-171.69140625 110.7790625 -171.69140625 103.5190625 -171.69140625 96.0390625 C-166.44448628 95.87245293 -161.19773599 95.70979311 -155.95043945 95.55688477 C-154.16879492 95.5038145 -152.38721518 95.44851709 -150.60571289 95.39086914 C-148.03155488 95.3079713 -145.45726321 95.23332855 -142.8828125 95.16015625 C-142.09806046 95.13312119 -141.31330841 95.10608612 -140.504776 95.07823181 C-135.13678628 94.93630918 -130.01827997 95.3503026 -124.69140625 96.0390625 C-124.69664307 95.40814697 -124.70187988 94.77723145 -124.70727539 94.12719727 C-124.72798451 91.28532903 -124.74104691 88.44347662 -124.75390625 85.6015625 C-124.76228516 84.60833984 -124.77066406 83.61511719 -124.77929688 82.59179688 C-124.78251953 81.64755859 -124.78574219 80.70332031 -124.7890625 79.73046875 C-124.79429932 78.85592041 -124.79953613 77.98137207 -124.80493164 77.08032227 C-124.69140625 75.0390625 -124.69140625 75.0390625 -123.69140625 74.0390625 C-122.20268765 73.95236818 -120.70996125 73.93202756 -119.21875 73.94140625 C-118.31962891 73.94462891 -117.42050781 73.94785156 -116.49414062 73.95117188 C-115.07584961 73.96374023 -115.07584961 73.96374023 -113.62890625 73.9765625 C-112.20481445 73.98333008 -112.20481445 73.98333008 -110.75195312 73.99023438 C-108.3983756 74.0020614 -106.04492148 74.01854225 -103.69140625 74.0390625 C-103.69664307 73.43843994 -103.70187988 72.83781738 -103.70727539 72.21899414 C-103.72798639 69.51319412 -103.7410475 66.80741073 -103.75390625 64.1015625 C-103.76228516 63.15603516 -103.77066406 62.21050781 -103.77929688 61.23632812 C-103.78251953 60.33720703 -103.78574219 59.43808594 -103.7890625 58.51171875 C-103.79429932 57.67906494 -103.79953613 56.84641113 -103.80493164 55.98852539 C-103.69140625 54.0390625 -103.69140625 54.0390625 -102.69140625 53.0390625 C-101.17384231 52.90615901 -99.65033375 52.84024517 -98.12744141 52.80200195 C-97.15618317 52.77560135 -96.18492493 52.74920074 -95.18423462 52.72200012 C-94.12699188 52.69901352 -93.06974915 52.67602692 -91.98046875 52.65234375 C-90.90139252 52.62681931 -89.82231628 52.60129486 -88.71054077 52.57499695 C-86.42231979 52.52287965 -84.13403591 52.47346616 -81.84570312 52.42651367 C-78.33818748 52.35202506 -74.83132787 52.26137095 -71.32421875 52.16992188 C-69.1054903 52.1214004 -66.88674052 52.07384248 -64.66796875 52.02734375 C-63.61477448 51.99828445 -62.5615802 51.96922516 -61.47647095 51.93928528 C-60.49890839 51.92234116 -59.52134583 51.90539703 -58.51416016 51.88793945 C-57.65335846 51.86874954 -56.79255676 51.84955963 -55.90567017 51.82978821 C-53.69140625 52.0390625 -53.69140625 52.0390625 -50.69140625 54.0390625 C-50.35083008 56.10205078 -50.35083008 56.10205078 -50.3984375 58.609375 C-50.40810547 59.50527344 -50.41777344 60.40117187 -50.42773438 61.32421875 C-50.45287109 62.26136719 -50.47800781 63.19851562 -50.50390625 64.1640625 C-50.51744141 65.10894531 -50.53097656 66.05382812 -50.54492188 67.02734375 C-50.58034319 69.36515029 -50.62973354 71.70182487 -50.69140625 74.0390625 C-50.10407715 73.9661499 -49.51674805 73.8932373 -48.91162109 73.81811523 C-43.82874068 73.21489402 -38.97220255 72.99617376 -33.85546875 73.19921875 C-31.39304215 73.19532578 -31.39304215 73.19532578 -28.69140625 71.0390625 C-28.26121526 68.96510537 -28.26121526 68.96510537 -28.36669922 66.54516602 C-28.3701535 65.61402481 -28.37360779 64.68288361 -28.37716675 63.723526 C-28.40509811 62.21102516 -28.40509811 62.21102516 -28.43359375 60.66796875 C-28.44021027 59.63469955 -28.44682678 58.60143036 -28.4536438 57.53684998 C-28.47711486 54.22478932 -28.52083179 50.91338672 -28.56640625 47.6015625 C-28.60144387 44.2933872 -28.63224882 40.98524924 -28.65774536 37.67698669 C-28.67474556 35.61577765 -28.69790627 33.55460859 -28.72775269 31.49354553 C-28.73751129 30.55925217 -28.7472699 29.6249588 -28.75732422 28.66235352 C-28.76859344 27.84009781 -28.77986267 27.0178421 -28.79147339 26.17066956 C-28.69140625 24.0390625 -28.69140625 24.0390625 -27.69140625 21.0390625 C-26.73878906 21.05066406 -25.78617188 21.06226563 -24.8046875 21.07421875 C-23.55042969 21.08324219 -22.29617188 21.09226563 -21.00390625 21.1015625 C-19.76253906 21.11316406 -18.52117187 21.12476563 -17.2421875 21.13671875 C-14.22905171 21.05384923 -11.60865286 20.74745699 -8.69140625 20.0390625 C-8.72621094 18.84667969 -8.76101563 17.65429688 -8.796875 16.42578125 C-8.82501378 14.85938908 -8.85231385 13.29298169 -8.87890625 11.7265625 C-8.90404297 10.94087891 -8.92917969 10.15519531 -8.95507812 9.34570312 C-8.96958008 8.2097168 -8.96958008 8.2097168 -8.984375 7.05078125 C-9.00794067 6.00603638 -9.00794067 6.00603638 -9.03198242 4.94018555 C-8.69140625 3.0390625 -8.69140625 3.0390625 -7.52880859 1.29077148 C-4.9163363 -0.48894489 -3.13025458 -0.19652266 0 0 Z " fill="#000000" transform="translate(445.69140625,144.9609375)"/>
<path d="M0 0 C0.99 0.495 0.99 0.495 2 1 C1.01 1.495 1.01 1.495 0 2 C0 1.34 0 0.68 0 0 Z " fill="#0C0D0D" transform="translate(396,216)"/>
<path d="" fill="#0C0D0C" transform="translate(0,0)"/>
<path d="M0 0 C2 1 2 1 2 1 Z " fill="#111011" transform="translate(760,485)"/>
<path d="M0 0 C2 1 2 1 2 1 Z " fill="#121313" transform="translate(520,184)"/>
<path d="" fill="#141212" transform="translate(0,0)"/>
<path d="" fill="#0E0F0F" transform="translate(0,0)"/>
<path d="" fill="#101213" transform="translate(0,0)"/>
<path d="" fill="#0B0D0D" transform="translate(0,0)"/>
<path d="" fill="#141314" transform="translate(0,0)"/>
<path d="" fill="#100F0E" transform="translate(0,0)"/>
<path d="" fill="#0F100D" transform="translate(0,0)"/>
<path d="" fill="#131416" transform="translate(0,0)"/>
<path d="" fill="#131714" transform="translate(0,0)"/>
<path d="" fill="#131313" transform="translate(0,0)"/>
<path d="" fill="#141614" transform="translate(0,0)"/>
<path d="" fill="#131311" transform="translate(0,0)"/>
<path d="" fill="#171514" transform="translate(0,0)"/>
<path d="" fill="#0A0A0A" transform="translate(0,0)"/>
<path d="" fill="#080909" transform="translate(0,0)"/>
<path d="" fill="#131311" transform="translate(0,0)"/>
<path d="" fill="#141313" transform="translate(0,0)"/>
<path d="" fill="#151413" transform="translate(0,0)"/>
<path d="" fill="#0C0B0C" transform="translate(0,0)"/>
<path d="" fill="#161716" transform="translate(0,0)"/>
<path d="" fill="#1A1819" transform="translate(0,0)"/>
<path d="" fill="#0E1010" transform="translate(0,0)"/>
<path d="" fill="#0D0F10" transform="translate(0,0)"/>
<path d="" fill="#0D0F0E" transform="translate(0,0)"/>
<path d="" fill="#181719" transform="translate(0,0)"/>
<path d="" fill="#1E1F1F" transform="translate(0,0)"/>
</svg>
